<?xml version="1.0" encoding="UTF-8"?>
<svg id="Camada_1" data-name="Camada 1" xmlns="http://www.w3.org/2000/svg" version="1.1" viewBox="0 0 666.4 285.04">
  <defs>
    <style>
      .cls-1 {
        fill-rule: evenodd;
      }

      .cls-1, .cls-2 {
        fill: #fff;
        stroke-width: 0px;
      }
    </style>
  </defs>
  <g>
    <path class="cls-1" d="M430.12,95.11h12.01v25.71c0,1.79.43,3.06,1.3,3.94.83.84,2.13,1.27,3.91,1.27s3.12-.48,4.03-1.39c.95-.96,1.38-2.31,1.38-4.14v-25.39h9.44v26.55c0,4.46-1.34,7.84-3.99,10.19-2.65,2.35-6.52,3.5-11.54,3.5-5.61,0-9.8-1.11-12.52-3.42-2.69-2.31-4.03-5.81-4.03-10.55v-26.27h0ZM468.56,134.56v-39.44h11.34l12.6,20.78-.47-20.78h9.92v39.44h-9.72l-14.3-23.76.47,23.76h-9.84ZM508.42,134.56v-39.44h12.25v39.44h-12.25ZM539.27,125.36h2.69c2.25,0,4.03-1,5.37-2.95,1.38-1.95,2.05-4.54,2.05-7.76s-.67-5.77-1.94-7.64c-1.26-1.91-3-2.83-5.14-2.83h-3.04v21.18h0ZM527.22,134.56v-39.44h15.09c2.37,0,4.5.2,6.36.64,1.9.4,3.52,1.07,4.94,1.95,2.65,1.71,4.74,4.06,6.24,7.05,1.46,2.99,2.21,6.33,2.21,10.07,0,3.3-.67,6.37-1.98,9.23-1.3,2.91-3.08,5.17-5.29,6.89-1.7,1.23-3.59,2.15-5.69,2.75-2.09.6-4.54.88-7.31.88h-14.58ZM562.9,134.56l12.05-39.44h12.76l12.33,39.44h-12.4l-2.29-7.92h-10.55l-2.21,7.92h-9.68ZM576.96,118.12h6.36l-3.16-11.5-3.2,11.5h0ZM609.12,134.56l-12.36-39.44h12.52l6.95,26.47,7.35-26.47h10.07l-12.56,39.44h-11.97ZM637.36,134.56v-39.44h12.25v39.44h-12.25Z"/>
    <path class="cls-1" d="M636.83,143.94c-8.98,105.08-128.01,95.78-132.3,0,11.8,77.86,88.63,54.41,87.39,0h44.91Z"/>
    <path class="cls-1" d="M430.04,143.94c14.98,174.91,212.42,159.49,219.62,0-18.92,131.19-154.08,109.21-157.62,0h-62Z"/>
  </g>
  <g>
    <path class="cls-2" d="M88.89,139.59c0,9.8-2.74,17.29-8.21,22.48-5.48,5.19-13.19,7.78-23.15,7.78s-17.68-2.59-23.15-7.78c-5.48-5.19-8.21-12.68-8.21-22.48v-38.51h0c8.71-6.17,20.75.06,20.75,10.73v23.33c0,4.78.62,8.32,1.85,10.62,1.65,3.13,4.57,4.69,8.77,4.69s7.37-1.6,9.01-4.82c1.07-2.22,1.6-5.72,1.6-10.5v-21.12c0-10.04,3.46-15.07,10.37-15.07s10.37,5.02,10.37,15.07v25.56Z"/>
    <path class="cls-2" d="M157.86,154.53c0,10.04-3.46,15.07-10.37,15.07s-10.37-5.02-10.37-15.07v-24.33c0-4.94-.66-8.64-1.98-11.11-1.73-3.29-4.82-4.94-9.26-4.94-7.25,0-10.87,5.25-10.87,15.74v26.9c0,10.68-12.14,16.82-20.75,10.5h0v-55.4l15.81-13.29c1.48.99,2.92,2.59,4.32,4.82,4.28-4.69,10.37-7.04,18.28-7.04,8.4,0,14.69,2.45,18.89,7.35,4.2,4.9,6.3,11.63,6.3,20.19v30.62Z"/>
    <path class="cls-2" d="M184.17,84.39c0,3.29-1.13,6.13-3.4,8.52-2.26,2.39-5.04,3.58-8.33,3.58s-6.22-1.15-8.52-3.46c-2.31-2.3-3.46-5.19-3.46-8.64s1.15-6.21,3.46-8.52c2.3-2.3,5.14-3.46,8.52-3.46s6.07,1.17,8.33,3.52c2.26,2.35,3.4,5.17,3.4,8.46ZM182.44,166.17h0c-8.46,6.32-20.5.28-20.5-10.27v-41.87c0-10.04,3.48-15.07,10.44-15.07s10.06,5.02,10.06,15.07v52.15Z"/>
    <path class="cls-2" d="M248.35,113.01l-17.78,45.47c-2.63,6.77-6.54,10.16-11.73,10.16-3.38,0-6.09-1.03-8.15-3.09-1.48-1.56-2.96-4.16-4.45-7.78l-20.99-53.59h0c9.94-4.37,21.48.76,24.89,11.06l8.94,26.97,11.24-37.62c1.65-5.71,4.9-8.57,9.76-8.57,6.42,0,9.63,3.34,9.63,10.04,0,2.31-.45,4.63-1.36,6.94Z"/>
    <path class="cls-2" d="M315.97,123.2l-7.29,14.45h-39.52c1.07,8.15,6.34,12.23,15.81,12.23,3.87,0,8.11-1.11,12.72-3.33l7.9,16.67c-6.42,3.62-13.67,5.43-21.73,5.43-10.37,0-18.96-3.52-25.75-10.56-6.79-7.04-10.19-15.79-10.19-26.24s3.27-18.87,9.82-25.99c6.54-7.12,14.88-10.68,25.01-10.68,8.48,0,15.78,2.64,21.92,7.9,6.13,5.27,9.9,11.98,11.3,20.13ZM296.34,124.06c-.25-3.54-1.67-6.48-4.26-8.83-2.59-2.35-5.62-3.52-9.08-3.52-3.7,0-6.81,1.13-9.32,3.4-2.51,2.26-4.1,5.25-4.75,8.95h27.41Z"/>
    <path class="cls-2" d="M364.38,105.04c0,4.12-3.85,7.58-11.54,10.37-5.21,1.81-8.48,3.38-9.8,4.69-1.9,1.89-2.86,5.23-2.86,10v23.46c0,10.04-3.48,15.07-10.43,15.07s-10.07-5.02-10.07-15.07v-58.41l20.2,6.55c4.35-4.69,8.95-7.04,13.79-7.04,2.87,0,5.38,1.01,7.51,3.03,2.13,2.02,3.2,4.47,3.2,7.35Z"/>
    <path class="cls-2" d="M148.1,244.69c0,7.23-2.92,13.06-8.77,17.5-5.35,4.11-11.82,6.16-19.39,6.16-5.93,0-11.32-1.11-16.18-3.33-6.26-2.8-9.39-6.87-9.39-12.22,0-2.39.72-4.53,2.16-6.42,1.44-1.89,3.35-2.84,5.74-2.84,2.22,0,5.43,1.01,9.63,3.02,4.2,2.02,7.45,3.03,9.76,3.03,3.79,0,5.68-1.4,5.68-4.2,0-2.14-3.75-4.69-11.24-7.66-6.34-2.47-10.91-4.94-13.71-7.41-4.12-3.54-6.17-8.15-6.17-13.83,0-6.75,2.67-12.18,8.03-16.3,4.94-3.87,10.91-5.81,17.91-5.81,8.15,0,15.89,2.18,23.22,6.55l-9.01,15.56c-1.23-.8-3.25-1.64-6.05-2.52-3.38-1.04-6.22-1.56-8.52-1.56-3.38,0-5.06,1.23-5.06,3.7,0,1.89,2.72,3.86,8.15,5.91,2.22.9,4.24,1.72,6.05,2.46,5.35,2.47,9.34,4.97,11.98,7.52,3.46,3.45,5.19,7.68,5.19,12.69Z"/>
    <path class="cls-2" d="M174.96,182.9c0,3.29-1.13,6.13-3.39,8.52-2.26,2.39-5.05,3.58-8.34,3.58s-6.22-1.15-8.52-3.46c-2.3-2.3-3.46-5.19-3.46-8.64s1.15-6.21,3.46-8.52c2.3-2.3,5.14-3.46,8.52-3.46s6.07,1.17,8.34,3.52c2.26,2.35,3.39,5.17,3.39,8.46ZM173.23,264.68h0c-8.46,6.32-20.5.28-20.5-10.27v-41.87c0-10.04,3.48-15.07,10.44-15.07s10.06,5.02,10.06,15.07v52.15Z"/>
    <path class="cls-2" d="M216.34,203.57c-.51,5.14-4.89,7.71-13.15,7.71h-1.99v52.02h0c-8.46,6.32-20.5.28-20.5-10.27v-69.04c0-10.04,3.46-15.07,10.37-15.07,3.46,0,6.01,1.26,7.66,3.77,1.65,2.51,2.47,6.28,2.47,11.3v9.26h1.99c4.09,0,7.32.83,9.69,2.5,2.28,1.6,3.73,5.05,3.45,7.82Z"/>
    <path class="cls-2" d="M280.8,266.48l-19.76-7.41c-4.44,5.27-10.25,7.9-17.41,7.9-9.47,0-17.17-3.79-23.09-11.36-5.43-7-8.15-15.35-8.15-25.07s2.88-18.11,8.64-25.19c6.09-7.57,13.91-11.36,23.46-11.36,6.91,0,12.43,2.43,16.55,7.29,2.14-4.36,5.39-6.55,9.76-6.55,6.67,0,10,4.98,10,14.94v56.8ZM260.3,230.3c0-4.41-1.03-8.13-3.1-11.15-2.4-3.51-5.71-5.27-9.92-5.27s-7.78,1.76-10.17,5.27c-2.15,3.03-3.23,6.74-3.23,11.15s1.03,8.38,3.1,11.4c2.4,3.6,5.83,5.39,10.3,5.39,4.22,0,7.53-1.84,9.92-5.52,2.07-3.11,3.1-6.86,3.1-11.28Z"/>
    <path class="cls-2" d="M330.31,203.37c0,4.12-3.85,7.58-11.54,10.37-5.21,1.81-8.48,3.38-9.8,4.69-1.9,1.9-2.86,5.23-2.86,10v23.46c0,10.04-3.48,15.07-10.43,15.07s-10.07-5.02-10.07-15.07v-58.41l20.2,6.54c4.35-4.69,8.95-7.04,13.79-7.04,2.87,0,5.38,1.01,7.51,3.02,2.13,2.02,3.2,4.47,3.2,7.35Z"/>
    <path class="cls-2" d="M353.84,181.52c0,3.29-1.13,6.13-3.4,8.52-2.27,2.39-5.04,3.58-8.34,3.58s-6.22-1.15-8.52-3.46c-2.3-2.3-3.46-5.19-3.46-8.64s1.15-6.21,3.46-8.52c2.3-2.3,5.14-3.46,8.52-3.46s6.07,1.17,8.34,3.52c2.26,2.35,3.4,5.17,3.4,8.46ZM352.11,263.3h0c-8.46,6.32-20.5.28-20.5-10.27v-41.87c0-10.04,3.48-15.07,10.44-15.07s10.06,5.02,10.06,15.07v52.15Z"/>
    <path class="cls-2" d="M425.47,229.8c0,10.62-3.17,19.43-9.51,26.43-6.59,7.16-15.15,10.74-25.69,10.74s-18.79-3.58-25.25-10.74c-6.46-7.16-9.69-15.97-9.69-26.43s3.13-19.3,9.39-26.3c6.58-7.16,15.11-10.74,25.56-10.74s19.1,3.58,25.69,10.74c6.34,7,9.51,15.77,9.51,26.3ZM403.98,229.55c0-4.61-1.08-8.52-3.23-11.73-2.56-3.79-6.04-5.68-10.42-5.68s-7.86,1.89-10.42,5.68c-2.24,3.29-3.35,7.2-3.35,11.73,0,4.78,1.07,8.81,3.23,12.1,2.56,3.79,6.08,5.68,10.54,5.68s8.06-1.89,10.54-5.68c2.07-3.29,3.1-7.33,3.1-12.1Z"/>
    <path class="cls-2" d="M260.83,168.23h0c7.01,4.93,5.39,15.74-2.75,18.4l-9.82,3.21c-7.75,2.53-12.5,1.12-14.25-4.25-1.69-5.17,1.34-9.03,9.08-11.56l17.74-5.8Z"/>
    <g>
      <path class="cls-2" d="M106.02,23.28l-4.25,5.17c-1.52-1.48-3.3-2.62-5.35-3.41-2.05-.8-4.2-1.2-6.46-1.2-3.49,0-6.49.89-9.01,2.68-2.52,1.78-4.43,4.05-5.72,6.8-1.29,2.75-1.94,5.56-1.94,8.43,0,2.67.61,5.06,1.82,7.17,1.21,2.11,2.88,3.76,5.01,4.95,2.13,1.19,4.51,1.78,7.14,1.78s4.8-.51,6.89-1.54c2.09-1.03,4.12-2.4,6.09-4.12l2.95,5.48c-2.54,2.21-5.17,3.91-7.88,5.07-2.71,1.17-5.64,1.76-8.8,1.76-3.94,0-7.47-.86-10.61-2.58-3.14-1.72-5.6-4.1-7.38-7.14-1.78-3.04-2.68-6.46-2.68-10.28s.94-7.91,2.83-11.78c1.88-3.87,4.71-7.06,8.46-9.57,3.75-2.5,8.27-3.75,13.57-3.75,3.16,0,6.05.5,8.67,1.51,2.63,1.01,4.84,2.53,6.65,4.59Z"/>
      <path class="cls-2" d="M142.84,38.69c1.37,2.11,2.06,4.56,2.06,7.35,0,2.3-.66,4.71-1.97,7.23-1.31,2.52-3.25,4.63-5.82,6.34-2.56,1.7-5.63,2.55-9.2,2.55-2.58,0-5.03-.57-7.32-1.72-2.3-1.15-4.14-2.79-5.54-4.92-1.4-2.13-2.09-4.6-2.09-7.38,0-2.3.66-4.7,1.97-7.2,1.31-2.5,3.25-4.61,5.81-6.31,2.56-1.7,5.63-2.55,9.2-2.55,2.63,0,5.08.57,7.38,1.72,2.3,1.15,4.13,2.78,5.51,4.89ZM121.43,42.97c-.88,1.52-1.32,3.16-1.32,4.92,0,2.3.77,4.26,2.31,5.87,1.54,1.62,3.46,2.43,5.75,2.43,1.68,0,3.25-.45,4.71-1.35,1.46-.9,2.63-2.11,3.51-3.63.88-1.52,1.32-3.16,1.32-4.92,0-2.3-.77-4.25-2.31-5.84-1.54-1.6-3.45-2.4-5.75-2.4-1.64,0-3.2.44-4.68,1.32-1.48.88-2.66,2.08-3.54,3.6Z"/>
      <path class="cls-2" d="M155.55,61.3l7.14-44.91h7.32l-7.14,44.91h-7.32Z"/>
      <path class="cls-2" d="M207.08,38.63c1.09,1.99,1.63,4.17,1.63,6.55,0,1.48-.16,2.83-.49,4.06h-23.2c.21,2.22,1.06,4.01,2.55,5.38,1.5,1.37,3.41,2.06,5.75,2.06,1.64,0,3.31-.34,5.02-1.01,1.7-.68,3.33-1.61,4.89-2.8l2.89,4.25c-4.06,3.36-8.53,5.05-13.41,5.05-2.99,0-5.61-.57-7.85-1.72-2.23-1.15-3.97-2.75-5.2-4.8-1.23-2.05-1.85-4.35-1.85-6.89,0-2.83.74-5.53,2.21-8.09,1.48-2.56,3.54-4.63,6.18-6.22,2.64-1.58,5.61-2.37,8.89-2.37,2.75,0,5.16.6,7.23,1.78,2.07,1.19,3.65,2.78,4.74,4.77ZM185.58,44.38h16.43c-.25-2.18-1.03-3.9-2.34-5.17-1.31-1.27-2.99-1.91-5.05-1.91s-3.89.67-5.51,2c-1.62,1.33-2.8,3.03-3.54,5.08ZM193.88,28.14l8-10.71h8.92l-11.69,10.71h-5.23Z"/>
      <path class="cls-2" d="M245.08,37.74l.74-4.74h7.14l-4.24,26.7c-.86,5.33-2.87,9.43-6.03,12.3-3.16,2.87-7.1,4.31-11.81,4.31-2.87,0-5.5-.58-7.88-1.75-2.38-1.17-4.27-2.57-5.66-4.22l4.49-4.25c1.19,1.23,2.6,2.23,4.22,2.98,1.62.76,3.29,1.14,5.01,1.14,2.75,0,5.07-.98,6.95-2.92,1.89-1.95,3.1-4.67,3.63-8.15l.12-.68c-2.58,2.46-5.7,3.69-9.35,3.69-2.63,0-4.96-.61-7.02-1.85-2.05-1.23-3.66-2.89-4.83-4.98-1.17-2.09-1.75-4.39-1.75-6.89,0-2.34.62-4.77,1.85-7.29,1.23-2.52,3.07-4.65,5.51-6.4,2.44-1.74,5.36-2.61,8.77-2.61,2.26,0,4.25.49,5.97,1.48,1.72.98,3.12,2.36,4.18,4.12ZM227.33,42.97c-.88,1.52-1.32,3.16-1.32,4.92,0,2.34.78,4.32,2.34,5.94,1.56,1.62,3.49,2.43,5.78,2.43,1.72,0,3.33-.45,4.83-1.35,1.5-.9,2.69-2.11,3.57-3.63.88-1.52,1.32-3.18,1.32-4.98,0-2.3-.78-4.25-2.34-5.84-1.56-1.6-3.53-2.4-5.91-2.4-1.68,0-3.26.44-4.74,1.32-1.48.88-2.66,2.08-3.54,3.6Z"/>
      <path class="cls-2" d="M264.03,61.3l4.49-28.3h7.14l-4.49,28.3h-7.14ZM278.06,22.23c0,1.23-.45,2.3-1.35,3.2-.9.9-1.95,1.35-3.14,1.35s-2.1-.37-2.86-1.11c-.76-.74-1.14-1.66-1.14-2.77,0-1.27.46-2.33,1.39-3.17.92-.84,1.98-1.26,3.17-1.26,1.11,0,2.04.36,2.8,1.08.76.72,1.14,1.61,1.14,2.68Z"/>
      <path class="cls-2" d="M316.55,38.69c1.37,2.11,2.06,4.56,2.06,7.35,0,2.3-.66,4.71-1.97,7.23-1.31,2.52-3.25,4.63-5.82,6.34-2.56,1.7-5.63,2.55-9.2,2.55-2.58,0-5.03-.57-7.32-1.72-2.3-1.15-4.14-2.79-5.54-4.92-1.4-2.13-2.09-4.6-2.09-7.38,0-2.3.66-4.7,1.97-7.2,1.31-2.5,3.25-4.61,5.81-6.31,2.56-1.7,5.63-2.55,9.2-2.55,2.63,0,5.08.57,7.38,1.72,2.3,1.15,4.13,2.78,5.51,4.89ZM295.13,42.97c-.88,1.52-1.32,3.16-1.32,4.92,0,2.3.77,4.26,2.31,5.87,1.54,1.62,3.46,2.43,5.75,2.43,1.68,0,3.25-.45,4.71-1.35,1.46-.9,2.63-2.11,3.51-3.63.88-1.52,1.32-3.16,1.32-4.92,0-2.3-.77-4.25-2.31-5.84-1.54-1.6-3.45-2.4-5.75-2.4-1.64,0-3.2.44-4.68,1.32-1.48.88-2.66,2.08-3.54,3.6Z"/>
    </g>
  </g>
</svg>