<?xml version="1.0" encoding="UTF-8"?>
<svg id="Camada_1" data-name="Camada 1" xmlns="http://www.w3.org/2000/svg" version="1.1" viewBox="0 0 788.28 271.28">
  <defs>
    <style>
      .cls-1 {
        fill: #449cce;
      }

      .cls-1, .cls-2, .cls-3 {
        stroke-width: 0px;
      }

      .cls-2 {
        fill-rule: evenodd;
      }

      .cls-2, .cls-3 {
        fill: #fff;
      }
    </style>
  </defs>
  <g>
    <path class="cls-2" d="M10.8,13.8h17v36.39c0,2.53.61,4.34,1.84,5.58,1.17,1.18,3.02,1.8,5.53,1.8s4.42-.68,5.7-1.97c1.34-1.35,1.96-3.27,1.96-5.86V13.8h13.36v37.57c0,6.31-1.9,11.1-5.65,14.42-3.75,3.32-9.22,4.96-16.32,4.96-7.94,0-13.86-1.58-17.72-4.84-3.8-3.27-5.7-8.22-5.7-14.93V13.8h0ZM65.2,69.62V13.8h16.04l17.83,29.4-.67-29.4h14.03v55.82h-13.75l-20.24-33.63.67,33.63h-13.92ZM121.61,69.62V13.8h17.33v55.82h-17.33ZM165.27,56.6h3.8c3.19,0,5.7-1.41,7.6-4.17,1.96-2.76,2.91-6.42,2.91-10.98s-.95-8.17-2.74-10.81c-1.79-2.7-4.25-4-7.27-4h-4.3v29.97h0ZM148.22,69.62V13.8h21.36c3.35,0,6.37.28,9,.9,2.68.56,4.98,1.52,6.99,2.76,3.75,2.42,6.71,5.75,8.83,9.97,2.07,4.22,3.13,8.96,3.13,14.25,0,4.68-.95,9.01-2.8,13.07-1.84,4.11-4.36,7.32-7.49,9.74-2.4,1.75-5.09,3.04-8.05,3.89-2.96.84-6.43,1.24-10.34,1.24h-20.63ZM198.7,69.62l17.05-55.82h18.06l17.44,55.82h-17.55l-3.24-11.21h-14.93l-3.13,11.21h-13.7ZM218.6,46.35h9l-4.47-16.28-4.53,16.28h0ZM264.11,69.62l-17.5-55.82h17.72l9.84,37.46,10.4-37.46h14.26l-17.78,55.82h-16.94ZM304.08,69.62V13.8h17.33v55.82h-17.33Z"/>
    <path class="cls-2" d="M303.32,82.9c-12.71,148.7-181.16,135.54-187.23,0,16.7,110.18,125.42,77,123.68,0h63.55Z"/>
    <path class="cls-2" d="M10.69,82.9c21.2,247.52,300.62,225.7,310.8,0-26.77,185.66-218.05,154.55-223.06,0H10.69Z"/>
  </g>
  <g>
    <path class="cls-1" d="M465.7,52.61c-.24-1.09-.66-1.63-1.63-1.63h-.79l.66-3.56h1.99c2.11,0,3.14.97,3.62,3.38l3.56,18.89c.18,1.27.42,3.56.42,3.56h.12s.78-2.11,1.69-3.56l10.93-18.95c1.57-2.78,2.29-3.32,5.13-3.32h2.17l-.72,3.56h-.78c-1.03,0-1.57.3-2.17,1.39l-14.79,25.41h-4.47l-4.95-25.17Z"/>
    <path class="cls-1" d="M524.67,46.69c7.49,0,10.93,4.65,10.93,10.99,0,2.35-.91,5.07-.91,5.07h-23.24s-.3,1.27-.3,2.66c0,5.31,3.32,9.42,9.72,9.42,5.49,0,9.9-3.68,9.9-3.68l1.33,3.38s-5.01,3.98-11.47,3.98c-8.27,0-13.7-5.13-13.7-12.8,0-9.9,7.49-19.01,17.75-19.01ZM531.19,59.49s.18-1.03.18-2.11c0-4.95-2.9-7.24-6.88-7.24-5.01,0-10.02,3.32-12.19,9.36h18.89Z"/>
    <path class="cls-1" d="M557.51,53.33c.12-.48.18-1.09.18-1.39,0-.6-.36-.97-1.15-.97h-2.42l.66-3.56h4.1c2.17,0,3.14.97,3.14,2.6,0,1.09-.42,3.02-.79,4.35h.12c1.57-2.66,6.1-7.67,12.62-7.67,5.37,0,7.73,2.9,7.85,7.67h.12c1.69-2.84,6.34-7.67,12.8-7.67,5.61,0,7.97,3.08,7.97,7.97,0,1.15-.18,2.42-.42,3.8l-2.66,13.82c-.06.3-.18.85-.18,1.03,0,.6.36.91,1.09.91h2.54l-.66,3.56h-4.23c-2.17,0-3.14-.85-3.14-2.66,0-.36.06-.91.18-1.39l2.78-14.25c.24-1.33.42-2.54.42-3.68,0-3.02-1.15-5.25-4.83-5.25-6.34,0-11.89,6.82-13.1,12.92l-2.78,14.31h-4.1l3.56-18.29c.3-1.33.42-2.54.42-3.68,0-3.02-1.15-5.25-4.77-5.25-6.64,0-12.01,6.82-13.16,12.98l-2.78,14.25h-4.11l4.71-24.45Z"/>
  </g>
  <path class="cls-1" d="M381.22,103.15h5.96l-35.57,68.68h-5.96l35.57-68.68Z"/>
  <g>
    <path class="cls-3" d="M420.94,93.83h-8.55v-18.31h8.55v-1.63c0-22.93,20.75-26.04,32.01-26.04,4.21,0,7.05.41,7.05.41v19.81s-1.63-.27-3.8-.27c-4.61,0-11.8.81-11.8,6.78v.95h12.89v18.31h-12.89v51.55h-23.47v-51.55Z"/>
    <path class="cls-3" d="M503.55,101.43h.95v-.81c0-6.65-3.12-9.09-8.95-9.09-2.98,0-6.1.68-6.1,3.39v3.12h-21.7v-7.73c0-15.6,19.8-16.41,27.81-16.41,24.42,0,32.42,12.48,32.42,28.49v20.35c0,1.9,1.09,2.98,2.98,2.98h5.16v19.67h-20.35c-6.78,0-9.22-4.21-9.22-7.33v-1.22h-.27s-4.88,10.17-19.53,10.17c-13.02,0-23.74-8.68-23.74-22.52,0-20.75,29.71-23.06,40.56-23.06ZM493.24,129.1c6.1,0,11.53-6.65,11.53-12.34v-1.08h-2.17c-7.46,0-16.01,2.03-16.01,7.6,0,3.26,2.04,5.83,6.65,5.83Z"/>
    <path class="cls-3" d="M540.72,133.71l26.86-32.15c3.53-4.34,6.1-6.38,6.1-6.38v-.27s-1.76.27-6.1.27h-2.58c-1.9,0-2.98,1.08-2.98,2.98v2.85h-21.03v-15.6c0-6.92,2.98-9.9,9.9-9.9h53.45v11.8l-26.72,32.15c-3.39,4.21-6.24,6.38-6.24,6.38v.27s1.76-.41,6.24-.41h5.15c1.9,0,2.98-1.09,2.98-2.98v-2.85h21.03v15.6c0,6.92-2.98,9.9-9.9,9.9h-56.16v-11.67Z"/>
    <path class="cls-3" d="M647.48,73.89c20.62,0,32.28,14.38,32.28,33.78,0,2.31-.54,7.05-.54,7.05h-44.09c1.76,8.82,8.82,12.75,16.28,12.75,10.04,0,18.58-7.32,18.58-7.32l9.36,15.74s-11.26,11.12-29.84,11.12c-24.96,0-38.39-18.04-38.39-36.63,0-20.48,13.84-36.49,36.35-36.49ZM655.76,100.48c0-4.34-3.39-8.95-8.27-8.95-6.78,0-10.17,3.8-11.67,8.95h19.94Z"/>
    <path class="cls-3" d="M694.96,98.17c0-1.9-1.09-2.98-2.98-2.98h-5.16v-19.67h20.75c6.38,0,9.9,2.58,9.9,8.95v3.66c0,2.17-.27,3.53-.27,3.53h.27c2.98-9.5,11.8-17.36,22.25-17.36,1.36,0,2.71.27,2.71.27v23.06s-1.9-.41-4.75-.41c-5.56,0-14.65,1.76-18.04,12.21-.81,2.58-1.22,5.7-1.22,9.5v26.45h-23.47v-47.21Z"/>
  </g>
  <g>
    <path class="cls-1" d="M486.83,142.7c.12-.6.18-1.03.18-1.39,0-.6-.24-.97-1.09-.97h-2.54l.66-3.56h4.23c2.23,0,3.02.97,3.02,2.23,0,.85-.3,2.23-.72,3.38h.12c1.99-3.2,5.67-6.34,11.29-6.34,7.06,0,11.11,4.65,11.11,12.5,0,11.17-8.09,19.32-16.54,19.32-4.23,0-8.03-2.11-9.42-6.1h-.12s-.12,1.39-.42,2.9l-2.78,14.55h-4.1l7.12-36.52ZM496.18,164.18c6.04,0,12.68-5.98,12.68-15.27,0-5.98-2.84-9.11-7.61-9.11-7.49,0-12.56,8.21-12.56,15.45,0,4.95,2.41,8.93,7.48,8.93Z"/>
    <path class="cls-1" d="M535.78,141.67c.12-.72-.06-1.33-1.09-1.33h-2.54l.72-3.56h4.23c2.29,0,3.08.85,3.08,2.48,0,.78-.66,4.17-1.21,5.55h.12c2.11-4.29,6.16-8.33,11.23-8.33.6,0,1.21.06,1.69.18l-.79,4.04c-.42-.06-.91-.12-1.51-.12-6.52,0-11.17,7.97-12.5,14.97l-2.23,11.59h-4.11l4.89-25.47Z"/>
    <path class="cls-1" d="M583.83,148.43h1.93l.12-.79c.18-1.09.3-1.87.3-2.9,0-3.56-2.05-5.25-6.22-5.25-2.05,0-6.34.48-6.76,2.66l-.3,1.93h-3.98l.54-2.9c.79-3.92,6.88-5.13,11.05-5.13,6.82,0,9.78,3.44,9.78,8.39,0,1.15-.12,2.42-.36,3.68l-2.59,13.16c-.06.42-.24,1.09-.24,1.39,0,.48.3.91,1.09.91h2.54l-.66,3.56h-3.86c-2.29,0-3.26-.91-3.26-2.42,0-.78.36-2.72.72-3.74h-.12c.06,0-3.68,6.88-11.41,6.88-4.59,0-8.81-2.41-8.81-7.91,0-9.18,11.23-11.53,20.52-11.53ZM573.02,164.49c6.28,0,10.99-7.12,11.83-11.41l.24-1.39h-1.69c-5.13,0-15.88.72-15.88,7.67,0,3.26,2.23,5.13,5.49,5.13Z"/>
  </g>
  <g>
    <path class="cls-3" d="M451.43,186.28c-.54-1.49-1.36-2.17-2.98-2.17h-1.76v-19.67h14.92c5.02,0,8.27,2.03,9.5,5.7l10.58,31.47c1.49,4.48,2.58,11.26,2.58,11.26h.27s1.08-6.78,2.58-11.26l10.45-31.47c1.22-3.66,4.75-5.7,9.63-5.7h13.7v19.67h-1.76c-1.63,0-2.71.68-3.26,2.17l-17.77,48.02h-28.62l-18.04-48.02Z"/>
    <path class="cls-3" d="M565.93,190.34h.95v-.81c0-6.65-3.12-9.09-8.95-9.09-2.98,0-6.1.68-6.1,3.39v3.12h-21.7v-7.73c0-15.6,19.8-16.41,27.81-16.41,24.42,0,32.42,12.48,32.42,28.49v20.35c0,1.9,1.09,2.98,2.98,2.98h5.16v19.67h-20.35c-6.78,0-9.22-4.21-9.22-7.33v-1.22h-.27s-4.88,10.17-19.53,10.17c-13.02,0-23.74-8.68-23.74-22.52,0-20.75,29.71-23.06,40.56-23.06ZM555.62,218.02c6.1,0,11.53-6.65,11.53-12.34v-1.09h-2.17c-7.46,0-16.01,2.04-16.01,7.6,0,3.26,2.04,5.83,6.65,5.83Z"/>
    <path class="cls-3" d="M610.96,159.96c0-1.9-1.08-2.98-2.98-2.98h-5.15v-19.67h21.7c6.92,0,9.9,2.98,9.9,9.9v64.43c0,1.9,1.08,2.98,2.98,2.98h5.15v19.67h-21.7c-6.92,0-9.9-2.98-9.9-9.9v-64.43Z"/>
    <path class="cls-3" d="M685.03,162.81c20.62,0,32.28,14.38,32.28,33.78,0,2.31-.54,7.05-.54,7.05h-44.09c1.76,8.82,8.82,12.75,16.28,12.75,10.04,0,18.58-7.33,18.58-7.33l9.36,15.74s-11.26,11.12-29.84,11.12c-24.96,0-38.39-18.04-38.39-36.63,0-20.48,13.84-36.49,36.35-36.49ZM693.3,189.4c0-4.34-3.39-8.95-8.27-8.95-6.78,0-10.17,3.8-11.67,8.95h19.94Z"/>
    <path class="cls-3" d="M732.51,187.09c0-1.9-1.09-2.98-2.98-2.98h-5.16v-19.67h20.75c6.38,0,9.9,2.58,9.9,8.95v3.66c0,2.17-.27,3.53-.27,3.53h.27c2.98-9.5,11.8-17.36,22.25-17.36,1.36,0,2.71.27,2.71.27v23.06s-1.9-.41-4.75-.41c-5.56,0-14.65,1.76-18.04,12.21-.81,2.58-1.22,5.7-1.22,9.5v26.45h-23.47v-47.21Z"/>
  </g>
</svg>