<?xml version="1.0" encoding="UTF-8"?>
<svg id="Camada_1" data-name="Camada 1" xmlns="http://www.w3.org/2000/svg" version="1.1" viewBox="0 0 725.38 245.72">
  <defs>
    <style>
      .cls-1 {
        fill: #fff;
        stroke-width: 0px;
      }
    </style>
  </defs>
  <g>
    <path class="cls-1" d="M503.07,93.89c-5.87,0-10.12-1.19-13-3.63-2.9-2.49-4.36-6.26-4.36-11.22v-25.61c0-.68.55-1.22,1.23-1.22h11.71c.68,0,1.22.55,1.22,1.23v25.06c0,1.38.3,2.36.91,2.98.58.58,1.57.88,2.94.88s2.4-.34,3.06-1c.68-.68.99-1.69.99-3.17v-24.75c0-.68.55-1.22,1.23-1.22h9.2c.68,0,1.22.55,1.22,1.23v25.88c0,4.67-1.45,8.32-4.3,10.85-2.78,2.47-6.84,3.72-12.06,3.72ZM488.16,54.66v24.38c0,4.27,1.14,7.33,3.5,9.35,2.38,2.02,6.22,3.04,11.41,3.04,4.6,0,8.11-1.04,10.43-3.1,2.34-2.08,3.48-5.03,3.48-9.02v-24.65s-6.75,0-6.75,0v23.53c0,2.14-.56,3.74-1.7,4.9-1.13,1.14-2.75,1.72-4.8,1.72-2.05,0-3.62-.54-4.68-1.6-1.09-1.1-1.63-2.64-1.63-4.7v-23.84s-9.26,0-9.26,0ZM700.89,93.12h-11.94c-.68,0-1.22-.55-1.22-1.23v-38.45c0-.68.55-1.22,1.23-1.22h11.94c.68,0,1.22.55,1.22,1.23v38.45c0,.68-.55,1.22-1.23,1.22ZM690.18,90.67h9.49s0-36,0-36h-9.49s0,36,0,36ZM673.09,93.12h-11.67c-.54,0-1.01-.35-1.17-.86l-12.05-38.45c-.12-.37-.05-.78.18-1.09s.6-.5.99-.5h12.21c.56,0,1.04.38,1.18.91l5.62,21.42,5.95-21.43c.15-.53.63-.9,1.18-.9h9.82c.39,0,.76.19.99.5s.3.72.18,1.09l-12.25,38.45c-.16.51-.63.85-1.17.85ZM662.32,90.67h9.87s11.47-36,11.47-36h-7.21s-6.92,24.9-6.92,24.9c-.15.53-.63.9-1.18.9h0c-.55,0-1.04-.38-1.18-.91l-6.54-24.89h-9.6s11.28,36,11.28,36ZM652.56,93.12h-12.09c-.55,0-1.02-.36-1.18-.88l-1.98-6.84h-8.43s-1.91,6.83-1.91,6.83c-.15.53-.63.9-1.18.9h-9.43c-.39,0-.75-.18-.98-.5-.23-.31-.3-.72-.19-1.09l11.75-38.45c.16-.51.63-.87,1.17-.87h12.44c.54,0,1.01.35,1.17.86l12.01,38.45c.12.37.05.78-.18,1.09-.23.31-.6.5-.99.5ZM641.39,90.67h9.51s-11.25-36-11.25-36h-10.63s-11,36-11,36h6.85s1.91-6.83,1.91-6.83c.15-.53.63-.9,1.18-.9h10.28c.55,0,1.02.36,1.18.88l1.98,6.84ZM595.8,93.12h-14.21c-.68,0-1.22-.55-1.22-1.23v-38.45c0-.68.55-1.22,1.23-1.22h14.71c2.46,0,4.64.22,6.48.65,1.87.39,3.58,1.07,5.17,2.05,2.8,1.81,4.99,4.28,6.54,7.36,1.52,3.1,2.29,6.59,2.29,10.37,0,3.34-.69,6.54-2.04,9.51-1.32,2.94-3.18,5.36-5.53,7.17-1.79,1.3-3.79,2.27-5.96,2.89-2.1.6-4.61.9-7.46.9ZM582.81,90.67h12.99c2.63,0,4.91-.27,6.79-.81,1.89-.54,3.63-1.38,5.16-2.49,2.02-1.56,3.59-3.61,4.76-6.22,1.21-2.65,1.82-5.51,1.82-8.5,0-3.4-.68-6.52-2.03-9.28-1.35-2.68-3.25-4.83-5.65-6.38-1.33-.82-2.78-1.39-4.4-1.73-1.68-.4-3.67-.59-5.95-.59h-13.49s0,36,0,36ZM575.2,93.11h-11.94c-.68,0-1.22-.55-1.22-1.23v-38.45c0-.68.55-1.22,1.23-1.22h11.94c.68,0,1.22.55,1.22,1.23v38.45c0,.68-.55,1.22-1.23,1.22ZM564.48,90.66h9.49s0-36,0-36h-9.49s0,36,0,36ZM556.94,93.11h-9.47c-.43,0-.83-.23-1.05-.59l-11.57-19.23.37,18.58c0,.33-.12.65-.35.88-.23.24-.55.37-.87.37h-9.59c-.68,0-1.22-.55-1.22-1.23v-38.45c0-.68.55-1.22,1.23-1.22h11.05c.43,0,.83.22,1.05.59l9.91,16.34-.36-15.67c0-.33.12-.65.35-.88.23-.24.55-.37.88-.37h9.67c.68,0,1.22.55,1.22,1.23v38.45c0,.68-.55,1.22-1.23,1.22ZM548.16,90.66h7.56s0-36,0-36h-7.19s.43,19,.43,19c.01.55-.35,1.05-.88,1.2s-1.1-.07-1.39-.54l-11.93-19.66h-9.14s0,36,0,36h7.12s-.44-21.91-.44-21.91c-.01-.55.35-1.05.88-1.2.53-.15,1.1.07,1.39.55l13.58,22.57ZM595.95,84.15h-2.62c-.68,0-1.22-.55-1.22-1.22v-20.64c0-.68.55-1.22,1.23-1.22h2.97c2.51,0,4.6,1.14,6.03,3.3,1.38,2.05,2.09,4.79,2.09,8.13,0,3.4-.75,6.19-2.23,8.27-1.54,2.24-3.65,3.39-6.24,3.39ZM594.56,81.7h1.39c1.76,0,3.14-.77,4.23-2.34,1.19-1.68,1.79-3.98,1.79-6.87,0-2.84-.56-5.12-1.68-6.76-.99-1.49-2.29-2.22-3.99-2.22h-1.74s0,18.19,0,18.19ZM636.27,77.09h-6.2c-.38,0-.74-.18-.97-.48-.23-.3-.31-.7-.2-1.07l3.12-11.21c.15-.53.63-.9,1.18-.9h0c.55,0,1.03.37,1.18.9l3.08,11.21c.1.37.02.76-.21,1.07-.23.3-.59.48-.97.48ZM631.68,74.64h2.98s-1.48-5.39-1.48-5.39l-1.5,5.39Z"/>
    <path class="cls-1" d="M624.36,175.73c-.4,0-.79,0-1.19-.01-16.32-.33-31.79-7.31-43.54-19.65-12.99-13.64-20.38-32.65-21.38-54.97-.03-.65.46-1.21,1.1-1.27.65-.06,1.23.39,1.33,1.04,3.71,24.51,17.22,49.87,43.98,47.55,19.55-1.69,39.39-19.86,38.77-47.33,0-.33.12-.65.35-.88.23-.24.55-.37.88-.37h43.78c.34,0,.67.15.9.4.23.25.35.59.32.93-2.04,23.81-10.07,43.42-23.23,56.71-11.43,11.55-26.33,17.86-42.06,17.86ZM563.88,122.28c3.38,12.57,9.29,23.46,17.51,32.09,11.3,11.87,26.15,18.58,41.82,18.89,39.43.79,60.36-34.86,63.87-71h-41.2c.03,28.2-20.65,46.81-41.03,48.57-14.76,1.28-31.64-6.08-40.98-28.56Z"/>
    <path class="cls-1" d="M593.22,224.56c-25.9,0-50.42-10.44-69.24-29.51-21.7-22-34.96-54.48-38.34-93.91-.03-.34.09-.68.32-.93.23-.25.56-.4.9-.4h60.44c.66,0,1.2.53,1.22,1.19.81,25,8.77,46.67,23.02,62.65,12.97,14.55,30.12,23.12,48.29,24.13,18.13,1,35.71-5.81,49.48-19.2,15.71-15.28,26.23-38.69,30.42-67.7.09-.65.68-1.11,1.33-1.04.65.06,1.14.62,1.11,1.27-1.67,36.97-13.88,68.43-35.3,90.99-19.36,20.39-44.82,31.91-71.69,32.45-.65.01-1.3.02-1.95.02ZM488.2,102.26c3.51,38.26,16.47,69.73,37.52,91.07,18.81,19.07,43.46,29.29,69.4,28.77,26.21-.53,51.06-11.78,69.97-31.69,16.18-17.03,27-39.28,31.87-65.21-14.92,49.82-49.47,66.57-77.26,65.03-18.82-1.05-36.57-9.9-49.98-24.95-14.41-16.17-22.56-37.93-23.6-63.02h-57.92Z"/>
  </g>
  <g>
    <path class="cls-1" d="M58.35,220.06H13.05c-.68,0-1.22-.55-1.22-1.23V60.3c0-.68.56-1.22,1.23-1.22h75.42c11.44,0,21.97,2.1,31.3,6.23,9.37,4.15,16.9,10.23,22.36,18.09h0c5.48,7.87,8.26,17.33,8.26,28.1,0,10.93-2.82,20.43-8.38,28.23-5.54,7.77-13.14,13.78-22.59,17.85-9.4,4.05-20.04,6.1-31.63,6.1h-28.22s0,55.17,0,55.17c0,.68-.55,1.22-1.22,1.22ZM14.28,217.61h42.85s0-55.16,0-55.16c0-.68.55-1.22,1.22-1.22h29.44c11.25,0,21.57-1.98,30.66-5.9,9.03-3.89,16.29-9.62,21.57-17.02,5.26-7.38,7.93-16.4,7.93-26.81,0-10.26-2.63-19.25-7.82-26.7h0c-5.2-7.48-12.39-13.28-21.34-17.25-9.01-3.99-19.21-6.01-30.3-6.01H14.29s0,156.08,0,156.08ZM84.17,129.02h-25.82c-.68,0-1.22-.55-1.22-1.23v-32.84c0-.68.55-1.22,1.23-1.22h25.82c6.34,0,11.31,1.68,14.77,4.98,3.48,3.32,5.25,7.62,5.25,12.78,0,5-1.72,9.22-5.13,12.54-3.39,3.31-8.4,4.99-14.9,4.99ZM59.58,126.57h24.59c5.83,0,10.27-1.44,13.19-4.29,2.95-2.88,4.39-6.41,4.39-10.79,0-4.52-1.47-8.12-4.49-11-3-2.86-7.4-4.3-13.08-4.3h-24.59s0,30.39,0,30.39Z"/>
    <path class="cls-1" d="M240.43,223.92c-15.98,0-30.89-3.67-44.29-10.91-13.42-7.24-24.2-17.45-32.06-30.34-7.86-12.89-11.84-27.55-11.84-43.55,0-16.01,3.99-30.62,11.85-43.44,7.85-12.81,18.64-22.98,32.06-30.22,13.41-7.23,28.31-10.9,44.29-10.9s31.11,3.67,44.52,10.91c13.42,7.24,24.17,17.41,31.94,30.23h0c7.78,12.82,11.73,27.43,11.73,43.44,0,16-3.95,30.66-11.73,43.55-7.78,12.89-18.53,23.09-31.95,30.34-13.41,7.23-28.38,10.9-44.52,10.9ZM240.44,57.01c-15.57,0-30.08,3.57-43.13,10.61-13.03,7.03-23.51,16.91-31.13,29.34-7.62,12.43-11.48,26.61-11.49,42.16,0,15.55,3.86,29.78,11.48,42.28,7.62,12.51,18.1,22.42,31.13,29.46,13.04,7.04,27.55,10.61,43.13,10.61,15.72,0,30.31-3.57,43.35-10.61,13.03-7.03,23.46-16.94,31.01-29.45,7.55-12.5,11.38-26.73,11.38-42.28,0-15.55-3.83-29.74-11.37-42.17h0c-7.55-12.43-17.98-22.31-31.01-29.34-13.04-7.04-27.63-10.61-43.35-10.61ZM240.43,183.16c-7.58,0-14.65-1.89-21-5.6-6.35-3.72-11.49-8.97-15.28-15.62-3.79-6.65-5.71-14.32-5.71-22.8,0-8.33,1.92-15.92,5.71-22.57,3.79-6.65,8.93-11.91,15.28-15.62,6.35-3.72,13.42-5.6,21-5.6,7.73,0,14.88,1.89,21.23,5.6,6.35,3.72,11.46,8.98,15.17,15.63,3.71,6.65,5.59,14.24,5.59,22.56,0,8.48-1.88,16.14-5.59,22.79-3.72,6.66-8.82,11.91-15.17,15.63-6.35,3.72-13.49,5.6-21.23,5.6ZM240.44,97.78c-7.14,0-13.79,1.77-19.76,5.27-5.97,3.5-10.81,8.45-14.39,14.72-3.58,6.27-5.39,13.46-5.39,21.36,0,8.05,1.81,15.31,5.39,21.59,3.57,6.27,8.41,11.23,14.39,14.72,5.97,3.5,12.62,5.27,19.76,5.27,7.29,0,14.02-1.77,19.99-5.27,5.97-3.49,10.77-8.44,14.27-14.71,3.5-6.28,5.28-13.54,5.28-21.6,0-7.9-1.78-15.09-5.28-21.37-3.5-6.27-8.3-11.22-14.27-14.71-5.97-3.5-12.7-5.27-19.99-5.27ZM254.93,52.48h-28.99c-.41,0-.8-.21-1.03-.56-.23-.35-.26-.79-.09-1.16l15.63-35.1c.2-.44.63-.73,1.12-.73h50.73c.5,0,.95.31,1.14.78.18.47.07,1-.3,1.34l-37.37,35.1c-.23.21-.53.33-.84.33ZM227.83,50.03h26.62s34.76-32.65,34.76-32.65h-46.84s-14.54,32.65-14.54,32.65Z"/>
    <path class="cls-1" d="M394.43,223.93c-16.85,0-31.76-2.78-44.31-8.26-12.52-5.46-22.19-11.25-28.75-17.2-.46-.42-.53-1.11-.18-1.62l21.06-29.67c.19-.27.48-.45.81-.5.33-.05.66.03.92.23,7.58,5.64,15.59,10.13,23.83,13.32,8.2,3.18,17.61,4.79,27.98,4.79,14.42,0,21.42-3.82,21.42-11.68,0-2.83-1.01-5.08-3.09-6.89-2.22-1.93-5.13-3.57-8.68-4.87-3.65-1.34-9.44-3.08-17.22-5.18-10.89-3.02-20.17-6.25-27.59-9.58-7.54-3.39-14.06-8.46-19.36-15.07-5.36-6.68-8.08-15.48-8.08-26.13,0-11.25,3.02-20.84,8.98-28.49,5.93-7.62,13.92-13.35,23.75-17.04,9.76-3.66,20.49-5.51,31.91-5.51,11.7,0,22.92,1.78,33.34,5.27,10.4,3.49,19.68,7.96,27.58,13.28.54.37.7,1.1.36,1.66l-18.35,29.89c-.18.29-.46.49-.79.56-.33.07-.67,0-.95-.19-5.31-3.69-11.6-6.72-18.7-9.01-7.09-2.29-14.66-3.45-22.5-3.45-6.42,0-11.61.95-15.43,2.82-3.58,1.76-5.32,4.06-5.32,7.05,0,3.3,1.85,5.83,5.66,7.74,4.14,2.07,10.85,4.4,19.94,6.94,12.36,3.32,22.78,6.77,30.95,10.25,8.29,3.53,15.64,8.97,21.85,16.18,6.28,7.29,9.47,17.01,9.47,28.88,0,12.8-3.74,23.18-11.1,30.85-7.29,7.6-16.35,13-26.93,16.07-10.48,3.04-21.41,4.58-32.5,4.58ZM323.82,197.38c6.34,5.52,15.51,10.92,27.28,16.05,12.24,5.34,26.82,8.05,43.33,8.05,10.85,0,21.56-1.51,31.82-4.48,10.16-2.94,18.85-8.13,25.84-15.41,6.91-7.2,10.42-17.01,10.42-29.16,0-11.27-2.98-20.45-8.87-27.28-5.96-6.92-13.01-12.14-20.95-15.53-8.06-3.43-18.37-6.85-30.64-10.14-9.25-2.58-16.11-4.97-20.39-7.11-4.66-2.33-7.02-5.67-7.02-9.93,0-3.96,2.25-7.08,6.69-9.25,4.15-2.04,9.71-3.07,16.51-3.07,8.09,0,15.91,1.2,23.25,3.57,6.86,2.22,13,5.11,18.27,8.61l17.06-27.79c-7.51-4.92-16.25-9.06-26.02-12.34-10.17-3.41-21.12-5.15-32.56-5.15-11.12,0-21.57,1.8-31.05,5.36-9.4,3.53-17.03,8.99-22.68,16.25-5.62,7.22-8.46,16.3-8.46,26.99,0,10.08,2.54,18.36,7.54,24.6,5.06,6.31,11.27,11.15,18.46,14.37,7.31,3.28,16.47,6.46,27.23,9.45,7.84,2.11,13.71,3.88,17.42,5.24,3.82,1.4,7,3.2,9.44,5.32,2.61,2.27,3.93,5.21,3.93,8.74,0,9.38-8.03,14.13-23.87,14.13-10.67,0-20.38-1.67-28.86-4.95-8.08-3.13-15.94-7.46-23.4-12.89l-19.71,27.76Z"/>
  </g>
</svg>